<svg id="Logo01" xmlns="http://www.w3.org/2000/svg" xmlns:xlink="http://www.w3.org/1999/xlink" viewBox="0 0 1395.64 715.25"><defs><style>.cls-1{fill:#5c6457;}.cls-1,.cls-2,.cls-5,.cls-8{opacity:0.69;}.cls-2{fill:#132a17;}.cls-3{fill:#3d3d3d;stroke:#fff;stroke-miterlimit:10;}.cls-4{fill:#f47958;opacity:0.47;}.cls-5{fill:#aa2d23;}.cls-6{fill:url(#linear-gradient);}.cls-7{fill:#f1ea2f;opacity:0.55;}.cls-8{fill:#d3c928;}.cls-9{fill:url(#linear-gradient-2);}.cls-10,.cls-11{font-size:263.04px;fill:#231f20;}.cls-10{font-family:Ayuthaya;}.cls-11{font-family:Adam;letter-spacing:42px;}</style><linearGradient id="linear-gradient" x1="673.22" y1="538.27" x2="415.08" y2="687.31" gradientUnits="userSpaceOnUse"><stop offset="0" stop-color="#e71e25"/><stop offset="1" stop-color="#951939"/></linearGradient><linearGradient id="linear-gradient-2" x1="776.78" y1="536.35" x2="480.58" y2="707.37" gradientUnits="userSpaceOnUse"><stop offset="0.01" stop-color="#f9ed32"/><stop offset="1" stop-color="#cac22c"/></linearGradient></defs><title>Logo01</title><g id="kGPZ5F.tif"><path d="M588.12,1059c-7.39.17-14.93,1.35-22.14,0.3-14.26-2.06-23.59-11.33-30.08-23.73-0.77-1.48-1.46-3-2.19-4.5q-115.48-238.75-231-477.5c-4.9-10.13-7.48-20.48-4.73-31.83,3.34-13.77,11.6-23.36,24.09-29.41q86.82-42.1,173.71-84.05,37.13-18,74.26-35.91c18.39-8.86,37.62-5.46,51.44,9.5a51.41,51.41,0,0,1,8.09,12.49Q746.07,634.81,862.36,875.4C872.81,897,868.57,916,850,931.49a5.79,5.79,0,0,0-.85,1.19Zm24.47-632.38L338.25,559.27,547.39,991.65,821.72,859ZM719.33,948.73a21.12,21.12,0,1,0-9.73,28A21.25,21.25,0,0,0,719.33,948.73ZM463.94,469.11q19.1-9.24,38.2-18.46c3.33-1.6,5.91-3.84,4.15-7.74-1.9-4.2-5.47-3.54-8.95-2-0.61.28-1.2,0.58-1.8,0.87q-36.39,17.6-72.78,35.23c-1.76.86-3.9,1.76-4.84,3.27s-1.5,4.36-.71,5.78,3.39,2.26,5.32,2.58c1.26,0.21,2.78-.9,4.12-1.55Q445.31,478.15,463.94,469.11Z" transform="translate(-296.89 -344.43)"/></g><path id="Black" class="cls-1" d="M433.89,588.17c26.45-60,84.38-129.57,114.15-147.47,32.77,174.85,45,342.49,45,342.49S524.72,840,509.65,878.9C485.39,738.64,433.89,588.17,433.89,588.17Z" transform="translate(-296.89 -344.43)"/><path id="Black-2" data-name="Black" class="cls-2" d="M391.26,545.28c26.45-60,84.38-129.57,114.15-147.47,32.77,174.85,86.26,368,86.26,368s-74.84,69.13-89.91,108.07C477.5,733.59,391.26,545.28,391.26,545.28Z" transform="translate(-296.89 -344.43)"/><path id="Black-3" data-name="Black" class="cls-3" d="M356.45,514.12c14.81-63.86,59.24-137.91,85.15-161,64.79,165.68,143.66,387.81,143.66,387.81S530.46,791.79,503.61,901C453.63,767.73,356.45,514.12,356.45,514.12Z" transform="translate(-296.89 -344.43)"/><g id="Red"><path class="cls-4" d="M597.39,496c10.3-24.41,45.06-36.63,48.76-37.39,14.71,80.88,64.36,315.4,65.77,344.16-52.66,11-165.38,71.63-184.63,79.87,27.39-30,61.32-58.54,104.49-83.4,7.35-4.23,19.91-7,18.92-15.44C643.09,718.94,597.39,496,597.39,496Z" transform="translate(-296.89 -344.43)"/><path class="cls-5" d="M558.53,448.71c8.37-25.13,51.75-44.61,55.38-45.66,20.94,79.49,85.29,361.22,88.94,389.79C651.2,807.9,543.53,877.09,525,886.8c25-32,56.59-63.12,97.7-91.26,7-4.79,19.31-8.54,17.67-16.87C627.71,714.63,558.53,448.71,558.53,448.71Z" transform="translate(-296.89 -344.43)"/><path class="cls-6" d="M511.64,399c5.24-30.54,45.66-52.76,49.67-54.61,38.26,88.24,145.62,364.37,154.88,396.76-57.08,26.53-169.38,125.57-189.12,140.07,23.24-41.42,54.3-83,96.88-122.79,7.25-6.78,20.82-13.29,17.45-22.63C615.48,664,511.64,399,511.64,399Z" transform="translate(-296.89 -344.43)"/></g><g id="Yellow"><path class="cls-7" d="M693.93,519.67c17.93-23.85,29.38-24.88,39.84-28.38,22,115.15,42.2,306.57,45.39,338.06-37.09,2.84-199.13,49.86-225,57.45,45.25-26.49,142.86-59.11,182.46-68.46C726.73,760.33,693.93,519.67,693.93,519.67Z" transform="translate(-296.89 -344.43)"/><path class="cls-8" d="M668.37,466c15.66-25.4,35-30.72,45-35.17C746,543.45,792.1,762.22,798.17,793.27c-36.67,6.24-193.69,68-218.79,77.94,42.61-30.54,136.81-72,175.37-85C739.61,729.38,668.37,466,668.37,466Z" transform="translate(-296.89 -344.43)"/><path class="cls-9" d="M633.19,405.83c14.81-31.47,31.47-37.95,42.58-44.43,52.45,126.19,128.65,350.79,139.76,386-41.65,12-215.43,104.13-243.19,118.94,45.35-41,140.92-103.9,184-132.82C731.3,669.62,633.19,405.83,633.19,405.83Z" transform="translate(-296.89 -344.43)"/></g><text class="cls-10" transform="translate(568.67 507.34)">vorto</text><text class="cls-11" transform="translate(568.67 299.34)">studo</text></svg>